<?xml version="1.0" encoding="UTF-8" standalone="no"?>
<svg
   xmlns:dc="http://purl.org/dc/elements/1.1/"
   xmlns:cc="http://creativecommons.org/ns#"
   xmlns:rdf="http://www.w3.org/1999/02/22-rdf-syntax-ns#"
   xmlns:svg="http://www.w3.org/2000/svg"
   xmlns="http://www.w3.org/2000/svg"
   xmlns:sodipodi="http://sodipodi.sourceforge.net/DTD/sodipodi-0.dtd"
   xmlns:inkscape="http://www.inkscape.org/namespaces/inkscape"
   inkscape:version="1.0 (4035a4fb49, 2020-05-01)"
   sodipodi:docname="logo.svg"
   viewBox="0 0 547.14935 296"
   height="296"
   width="547.14935"
   xml:space="preserve"
   id="svg2"
   version="1.1"><metadata
     id="metadata8"><rdf:RDF><cc:Work
         rdf:about=""><dc:format>image/svg+xml</dc:format><dc:type
           rdf:resource="http://purl.org/dc/dcmitype/StillImage" /><dc:title></dc:title></cc:Work></rdf:RDF></metadata><defs
     id="defs6"><clipPath
       id="clipPath34"
       clipPathUnits="userSpaceOnUse"><path
         id="path32"
         d="M 0,222 H 410.362 V 0 H 0 Z" /></clipPath></defs><sodipodi:namedview
     inkscape:current-layer="g10"
     inkscape:window-maximized="1"
     inkscape:window-y="-8"
     inkscape:window-x="-8"
     inkscape:cy="169.56254"
     inkscape:cx="273.57468"
     inkscape:zoom="1.8550694"
     showgrid="false"
     id="namedview4"
     inkscape:window-height="961"
     inkscape:window-width="1280"
     inkscape:pageshadow="2"
     inkscape:pageopacity="0"
     guidetolerance="10"
     gridtolerance="10"
     objecttolerance="10"
     borderopacity="1"
     bordercolor="#666666"
     pagecolor="#ffffff" /><g
     transform="matrix(1.3333333,0,0,-1.3333333,0,296)"
     inkscape:label="KATY_logo"
     inkscape:groupmode="layer"
     id="g10"><g
       transform="translate(109.1795,40.8296)"
       id="g12"><path
         id="path14"
         style="fill:#1e3767;fill-opacity:1;fill-rule:nonzero;stroke:none"
         d="M 0,0 H -7.249 V 81.259 H 0 V 42.91 l 14.031,0.35 22.565,37.999 h 8.3 L 20.345,40.454 46.417,0 H 37.766 L 14.147,36.712 0,36.479 Z" /></g><g
       transform="translate(189.1521,115.7749)"
       id="g16"><path
         id="path18"
         style="fill:#1e3767;fill-opacity:1;fill-rule:nonzero;stroke:none"
         d="M 0,0 -13.212,-46.066 H 19.526 L 6.313,0 Z M -28.645,-74.945 -5.262,6.313 h 16.954 l 23.267,-81.258 h -7.132 l -6.547,22.448 h -36.246 l -6.43,-22.448 z" /></g><g
       transform="translate(222.825,115.541)"
       id="g20"><path
         id="path22"
         style="fill:#1e3767;fill-opacity:1;fill-rule:nonzero;stroke:none"
         d="M 0,0 V 6.547 H 58.46 V 0 H 32.972 v -74.711 h -7.249 l 0,74.711 z" /></g><g
       transform="translate(376.0584,40.8296)"
       id="g24"><path
         id="path26"
         style="fill:#1e3767;fill-opacity:1;fill-rule:nonzero;stroke:none"
         d="m 0,0 h -7.248 v 34.375 l -26.074,46.884 h 8.067 L -3.624,41.857 17.889,81.259 h 8.185 L 0,34.375 Z" /></g><g
       id="g28"><g
         clip-path="url(#clipPath34)"
         id="g30"><g
           transform="translate(83.2664,202.6426)"
           id="g36"><path
             id="path38"
             style="fill:#f39200;fill-opacity:1;fill-rule:nonzero;stroke:none"
             d="m 0,0 c 0,6.15 -4.985,11.135 -11.136,11.135 -6.149,0 -11.135,-4.985 -11.135,-11.135 0,-6.15 4.986,-11.135 11.135,-11.135 C -4.985,-11.135 0,-6.15 0,0" /></g><g
           transform="translate(34.4841,166.021)"
           id="g40"><path
             id="path42"
             style="fill:#f39200;fill-opacity:1;fill-rule:nonzero;stroke:none"
             d="m 0,0 c 0,4.421 -3.584,8.005 -8.005,8.005 -4.422,0 -8.006,-3.584 -8.006,-8.005 0,-4.421 3.584,-8.005 8.006,-8.005 C -3.584,-8.005 0,-4.421 0,0" /></g><g
           transform="translate(80.6384,80.7373)"
           id="g44"><path
             id="path46"
             style="fill:#f39200;fill-opacity:1;fill-rule:nonzero;stroke:none"
             d="m 0,0 c 0,4.421 -3.585,8.006 -8.006,8.006 -4.422,0 -8.006,-3.585 -8.006,-8.006 0,-4.421 3.584,-8.005 8.006,-8.005 C -3.585,-8.005 0,-4.421 0,0" /></g><g
           transform="translate(149.0877,159.335)"
           id="g48"><path
             id="path50"
             style="fill:#f39200;fill-opacity:1;fill-rule:nonzero;stroke:none"
             d="m 0,0 c 0,4.421 -3.585,8.005 -8.006,8.005 -4.422,0 -8.006,-3.584 -8.006,-8.005 0,-4.421 3.584,-8.005 8.006,-8.005 C -3.585,-8.005 0,-4.421 0,0" /></g><g
           transform="translate(28.9666,87.7607)"
           id="g52"><path
             id="path54"
             style="fill:#f39200;fill-opacity:1;fill-rule:nonzero;stroke:none"
             d="m 0,0 c 0,4.987 -4.043,9.03 -9.03,9.03 -4.988,0 -9.031,-4.043 -9.031,-9.03 0,-4.987 4.043,-9.03 9.031,-9.03 C -4.043,-9.03 0,-4.987 0,0" /></g><g
           transform="translate(72.4265,123.4453)"
           id="g56"><path
             id="path58"
             style="fill:#1e3767;fill-opacity:1;fill-rule:nonzero;stroke:none"
             d="m 0,0 c -9.042,0 -16.396,7.357 -16.396,16.399 0,1.597 0.232,3.14 0.659,4.598 0.023,0.073 0.044,0.143 0.062,0.218 2.061,6.699 8.308,11.583 15.675,11.583 9.043,0 16.399,-7.357 16.399,-16.399 C 16.399,7.357 9.043,0 0,0 m 0,-45.334 c -1.733,0 -3.142,1.41 -3.142,3.141 0,1.517 1.079,2.787 2.512,3.08 0.205,-0.039 0.414,-0.061 0.63,-0.061 0.217,0 0.428,0.022 0.633,0.061 1.43,-0.293 2.511,-1.563 2.511,-3.08 0,-1.731 -1.411,-3.141 -3.144,-3.141 M -7.056,79.031 c 0,3.89 3.166,7.057 7.056,7.057 3.893,0 7.057,-3.167 7.057,-7.057 0,-3.892 -3.164,-7.058 -7.057,-7.058 -3.89,0 -7.056,3.166 -7.056,7.058 M -45.44,39.786 c -1.735,0 -3.143,1.411 -3.143,3.144 0,1.731 1.408,3.142 3.143,3.142 1.732,0 3.14,-1.411 3.14,-3.142 0,-1.733 -1.408,-3.144 -3.14,-3.144 M 3.494,39.525 v 25.901 c 6.061,1.555 10.553,7.065 10.553,13.605 0,7.744 -6.301,14.045 -14.047,14.045 -7.743,0 -14.044,-6.301 -14.044,-14.045 0,-6.54 4.493,-12.05 10.551,-13.605 V 39.525 C -10.841,38.419 -17.083,33.881 -20.522,27.6 l -15.372,11.947 c 0.378,1.058 0.582,2.198 0.582,3.383 0,5.585 -4.544,10.13 -10.128,10.13 -5.588,0 -10.13,-4.545 -10.13,-10.13 0,-5.587 4.542,-10.132 10.13,-10.132 1.848,0 3.585,0.503 5.079,1.372 l 17.372,-13.506 c -0.257,-1.383 -0.398,-2.807 -0.398,-4.265 0,-5.189 1.702,-9.988 4.573,-13.871 l -27.177,-26.997 c -1.363,-1.364 -1.363,-3.577 0,-4.94 0.682,-0.683 1.579,-1.024 2.472,-1.024 0.894,0 1.789,0.341 2.471,1.024 l 27.177,26.995 c 2.996,-2.215 6.533,-3.732 10.378,-4.31 v -25.96 c -3.87,-1.426 -6.637,-5.15 -6.637,-9.509 0,-5.584 4.546,-10.13 10.13,-10.13 5.588,0 10.132,4.546 10.132,10.13 0,4.359 -2.769,8.085 -6.638,9.509 v 25.957 c 11.244,1.693 19.894,11.418 19.894,23.126 0,11.709 -8.65,21.434 -19.894,23.126" /></g><g
           transform="translate(141.5877,152.6812)"
           id="g60"><path
             id="path62"
             style="fill:#1e3767;fill-opacity:1;fill-rule:nonzero;stroke:none"
             d="m 0,0 c -3.893,0 -7.059,3.165 -7.059,7.056 0,3.893 3.166,7.057 7.059,7.057 3.89,0 7.057,-3.164 7.057,-7.057 C 7.057,3.167 3.89,0 0,0 m 0,21.103 c -7.745,0 -14.047,-6.301 -14.047,-14.047 0,-0.359 0.019,-0.716 0.046,-1.071 L -49.085,-5.967 c -1.827,-0.623 -2.803,-2.609 -2.179,-4.436 0.495,-1.451 1.851,-2.366 3.307,-2.366 0.373,0 0.753,0.059 1.127,0.187 L -11.747,-0.63 C -9.235,-4.454 -4.909,-6.988 0,-6.988 c 7.743,0 14.045,6.301 14.045,14.044 0,7.746 -6.302,14.047 -14.045,14.047" /></g><g
           transform="translate(20.3474,80.7085)"
           id="g64"><path
             id="path66"
             style="fill:#1e3767;fill-opacity:1;fill-rule:nonzero;stroke:none"
             d="m 0,0 c -3.89,0 -7.057,3.167 -7.057,7.057 0,3.892 3.167,7.058 7.057,7.058 3.893,0 7.057,-3.166 7.057,-7.058 C 7.059,3.167 3.893,0 0,0 m 0,21.104 c -7.743,0 -14.044,-6.302 -14.044,-14.047 0,-7.744 6.301,-14.045 14.044,-14.045 7.746,0 14.045,6.301 14.045,14.045 C 14.047,14.802 7.746,21.104 0,21.104" /></g><g
           transform="translate(82.1541,140.0684)"
           id="g68"><path
             id="path70"
             style="fill:#f39200;fill-opacity:1;fill-rule:nonzero;stroke:none"
             d="m 0,0 c 0,5.408 -4.384,9.792 -9.792,9.792 -5.409,0 -9.793,-4.384 -9.793,-9.792 0,-5.408 4.384,-9.792 9.793,-9.792 C -4.384,-9.792 0,-5.408 0,0" /></g><g
           transform="translate(351.4949,81.4082)"
           id="g72"><path
             id="path74"
             style="fill:#f39200;fill-opacity:1;fill-rule:nonzero;stroke:none"
             d="m 0,0 c 0,22.411 -18.167,40.579 -40.578,40.579 -22.411,0 -40.579,-18.168 -40.579,-40.579 0,-22.411 18.168,-40.579 40.579,-40.579 C -18.167,-40.579 0,-22.411 0,0" /></g><g
           transform="translate(304.8885,63.7012)"
           id="g76"><path
             id="path78"
             style="fill:#1e3767;fill-opacity:1;fill-rule:nonzero;stroke:none"
             d="m 0,0 c -3.803,-0.825 -7.229,-1.237 -10.279,-1.237 -3.05,0 -5.491,0.376 -7.32,1.13 -1.83,0.753 -3.265,1.955 -4.306,3.606 -1.04,1.649 -1.758,3.587 -2.153,5.813 -0.395,2.224 -0.591,5.022 -0.591,8.396 0,7.067 0.995,11.992 2.987,14.773 1.991,2.78 5.659,4.171 11.006,4.171 3.085,0 6.656,-0.485 10.711,-1.453 l -0.216,-5.921 c -3.553,0.538 -6.504,0.808 -8.854,0.808 -2.349,0 -4.027,-0.315 -5.032,-0.942 -1.005,-0.628 -1.749,-1.821 -2.233,-3.579 -0.485,-1.759 -0.727,-4.755 -0.727,-8.988 0,-4.234 0.493,-7.167 1.48,-8.8 0.986,-1.632 2.961,-2.448 5.92,-2.448 2.961,0 6.109,0.25 9.446,0.753 z" /></g><g
           transform="translate(331.9607,63.1094)"
           id="g80"><path
             id="path82"
             style="fill:#1e3767;fill-opacity:1;fill-rule:nonzero;stroke:none"
             d="M 0,0 V 15.178 H -13.617 V 0 h -7.427 v 36.598 h 7.427 V 21.636 H 0 V 36.598 H 7.427 V 0 Z" /></g><g
           transform="translate(111.3367,16.3164)"
           id="g84"><path
             id="path86"
             style="fill:#1e3767;fill-opacity:1;fill-rule:nonzero;stroke:none"
             d="m 0,0 c -1.444,-0.313 -2.746,-0.47 -3.904,-0.47 -1.158,0 -2.084,0.143 -2.78,0.428 -0.694,0.287 -1.239,0.744 -1.634,1.371 -0.396,0.626 -0.667,1.361 -0.818,2.207 -0.15,0.845 -0.224,1.907 -0.224,3.189 0,2.683 0.378,4.553 1.133,5.609 0.756,1.056 2.15,1.584 4.18,1.584 1.172,0 2.528,-0.184 4.068,-0.551 l -0.083,-2.248 c -1.348,0.203 -2.469,0.306 -3.361,0.306 -0.893,0 -1.53,-0.12 -1.911,-0.358 C -5.716,10.829 -5.999,10.376 -6.183,9.708 -6.366,9.04 -6.458,7.903 -6.458,6.295 c 0,-1.608 0.187,-2.722 0.562,-3.341 0.375,-0.621 1.125,-0.931 2.248,-0.931 1.124,0 2.32,0.096 3.586,0.286 z" /></g><path
           id="path88"
           style="fill:#f39200;fill-opacity:1;fill-rule:nonzero;stroke:none"
           d="m 113.504,30.399 h 2.738 V 16.091 h -2.738 z" /><path
           id="path90"
           style="fill:#f39200;fill-opacity:1;fill-rule:nonzero;stroke:none"
           d="m 118.898,26.311 h 2.739 v -10.22 h -2.739 z m 0,4.088 h 2.739 v -2.78 h -2.739 z" /><g
           transform="translate(126.9099,16.0913)"
           id="g92"><path
             id="path94"
             style="fill:#f39200;fill-opacity:1;fill-rule:nonzero;stroke:none"
             d="M 0,0 H -2.738 V 10.22 H -0.02 V 9.647 c 0.926,0.544 1.779,0.818 2.555,0.818 1.362,0 2.302,-0.402 2.82,-1.206 C 5.873,8.455 6.132,7.215 6.132,5.54 V 0 H 3.394 V 5.457 C 3.394,6.329 3.291,6.973 3.086,7.388 2.883,7.805 2.474,8.012 1.86,8.012 1.302,8.012 0.764,7.917 0.245,7.726 L 0,7.644 Z" /></g><path
           id="path96"
           style="fill:#f39200;fill-opacity:1;fill-rule:nonzero;stroke:none"
           d="m 135.473,26.311 h 2.739 v -10.22 h -2.739 z m 0,4.088 h 2.739 v -2.78 h -2.739 z" /><g
           transform="translate(144.5691,26.5562)"
           id="g98"><path
             id="path100"
             style="fill:#f39200;fill-opacity:1;fill-rule:nonzero;stroke:none"
             d="M 0,0 C 0.708,0 1.614,-0.109 2.718,-0.328 L 3.271,-0.45 3.188,-2.616 c -1.076,0.109 -1.873,0.163 -2.391,0.163 -0.94,0 -1.564,-0.201 -1.87,-0.603 -0.307,-0.402 -0.46,-1.162 -0.46,-2.279 0,-1.117 0.153,-1.884 0.46,-2.299 0.306,-0.415 0.936,-0.623 1.891,-0.623 l 2.37,0.163 0.083,-2.187 c -1.459,-0.285 -2.569,-0.428 -3.333,-0.428 -1.512,0 -2.599,0.425 -3.259,1.276 -0.661,0.851 -0.992,2.218 -0.992,4.098 0,1.88 0.34,3.24 1.022,4.078 C -2.609,-0.419 -1.513,0 0,0" /></g><g
           transform="translate(153.0925,20.4238)"
           id="g102"><path
             id="path104"
             style="fill:#f39200;fill-opacity:1;fill-rule:nonzero;stroke:none"
             d="m 0,0 c -0.764,-0.067 -1.146,-0.477 -1.146,-1.226 0,-0.75 0.334,-1.124 1.003,-1.124 0.517,0 1.082,0.082 1.696,0.246 L 1.86,-2.023 V 0.165 Z M 4.598,2.699 V -1.553 C 4.625,-1.88 4.681,-2.107 4.762,-2.238 4.844,-2.367 5.015,-2.459 5.273,-2.514 L 5.19,-4.577 c -0.694,0 -1.25,0.047 -1.665,0.143 -0.415,0.095 -0.835,0.285 -1.256,0.571 -0.982,-0.476 -1.984,-0.714 -3.004,-0.714 -2.114,0 -3.169,1.117 -3.169,3.351 0,1.09 0.293,1.863 0.879,2.32 0.586,0.457 1.485,0.726 2.698,0.807 L 1.86,2.065 V 2.699 C 1.86,3.12 1.765,3.411 1.573,3.567 1.382,3.724 1.076,3.803 0.653,3.803 L -3.188,3.638 -3.27,5.54 c 1.458,0.395 2.843,0.592 4.159,0.592 1.315,0 2.261,-0.273 2.84,-0.817 C 4.309,4.77 4.598,3.897 4.598,2.699" /></g><path
           id="path106"
           style="fill:#f39200;fill-opacity:1;fill-rule:nonzero;stroke:none"
           d="m 160.429,30.399 h 2.738 V 16.091 h -2.738 z" /><g
           transform="translate(173.3855,16.0913)"
           id="g108"><path
             id="path110"
             style="fill:#f39200;fill-opacity:1;fill-rule:nonzero;stroke:none"
             d="M 0,0 H -2.82 V 13.898 H 0 V 7.788 L 1.882,7.992 4.17,13.898 H 7.379 L 4.354,6.929 7.461,0 H 4.211 L 1.882,5.54 0,5.335 Z" /></g><g
           transform="translate(185.0359,16.0913)"
           id="g112"><path
             id="path114"
             style="fill:#f39200;fill-opacity:1;fill-rule:nonzero;stroke:none"
             d="m 0,0 h -2.739 v 10.22 h 2.718 V 9.647 c 0.927,0.544 1.779,0.818 2.555,0.818 1.363,0 2.303,-0.402 2.82,-1.206 C 5.873,8.455 6.131,7.215 6.131,5.54 V 0 H 3.394 V 5.457 C 3.394,6.329 3.29,6.973 3.086,7.388 2.882,7.805 2.473,8.012 1.86,8.012 1.302,8.012 0.764,7.917 0.245,7.726 L 0,7.644 Z" /></g><g
           transform="translate(196.2664,18.9121)"
           id="g116"><path
             id="path118"
             style="fill:#f39200;fill-opacity:1;fill-rule:nonzero;stroke:none"
             d="m 0,0 c 0.279,-0.491 0.78,-0.736 1.502,-0.736 0.723,0 1.224,0.245 1.503,0.736 0.278,0.491 0.419,1.26 0.419,2.309 0,1.05 -0.141,1.813 -0.419,2.29 C 2.726,5.075 2.225,5.314 1.502,5.314 0.78,5.314 0.279,5.075 0,4.599 -0.278,4.122 -0.419,3.359 -0.419,2.309 -0.419,1.26 -0.278,0.491 0,0 m -2.115,6.244 c 0.722,0.933 1.928,1.4 3.617,1.4 1.69,0 2.895,-0.467 3.618,-1.4 0.722,-0.933 1.083,-2.245 1.083,-3.935 0,-3.583 -1.566,-5.374 -4.701,-5.374 -3.134,0 -4.7,1.791 -4.7,5.374 0,1.69 0.361,3.002 1.083,3.935" /></g><g
           transform="translate(203.6961,26.311)"
           id="g120"><path
             id="path122"
             style="fill:#f39200;fill-opacity:1;fill-rule:nonzero;stroke:none"
             d="m 0,0 h 2.697 l 1.247,-7.89 h 0.491 l 1.553,7.685 h 2.821 l 1.553,-7.685 h 0.491 L 12.099,0 h 2.699 L 12.855,-10.22 H 8.563 L 7.398,-3.966 6.234,-10.22 H 1.941 Z" /></g><path
           id="path124"
           style="fill:#f39200;fill-opacity:1;fill-rule:nonzero;stroke:none"
           d="m 220.374,30.399 h 2.738 V 16.091 h -2.738 z" /><g
           transform="translate(231.533,22.1206)"
           id="g126"><path
             id="path128"
             style="fill:#f39200;fill-opacity:1;fill-rule:nonzero;stroke:none"
             d="M 0,0 C 0,0.817 -0.13,1.386 -0.39,1.707 -0.648,2.027 -1.101,2.188 -1.748,2.188 -2.396,2.188 -2.853,2.02 -3.117,1.687 -3.384,1.352 -3.523,0.791 -3.536,0 Z m -3.016,-3.443 c 0.32,-0.28 0.781,-0.42 1.38,-0.42 1.268,0 2.398,0.041 3.393,0.123 l 0.572,0.062 0.042,-2.025 c -1.568,-0.38 -2.985,-0.571 -4.252,-0.571 -1.54,0 -2.656,0.408 -3.352,1.226 -0.695,0.817 -1.042,2.146 -1.042,3.986 0,3.665 1.505,5.498 4.516,5.498 2.972,0 4.456,-1.541 4.456,-4.62 l -0.205,-1.9 h -6.009 c 0.015,-0.627 0.181,-1.08 0.501,-1.359" /></g><g
           transform="translate(241.8533,18.5439)"
           id="g130"><path
             id="path132"
             style="fill:#f39200;fill-opacity:1;fill-rule:nonzero;stroke:none"
             d="m 0,0 0.286,0.062 v 5.375 c -0.749,0.136 -1.417,0.204 -2.003,0.204 -1.103,0 -1.655,-0.981 -1.655,-2.943 0,-1.063 0.123,-1.819 0.368,-2.268 0.245,-0.45 0.65,-0.675 1.216,-0.675 0.565,0 1.161,0.082 1.788,0.245 M 3.025,11.855 V -2.453 H 0.307 v 0.43 c -0.954,-0.45 -1.779,-0.674 -2.473,-0.674 -1.485,0 -2.521,0.428 -3.107,1.287 -0.586,0.859 -0.879,2.218 -0.879,4.077 0,1.86 0.35,3.216 1.053,4.068 0.702,0.851 1.76,1.277 3.177,1.277 0.437,0 1.043,-0.069 1.82,-0.204 L 0.286,7.726 v 4.129 z" /></g><g
           transform="translate(249.7634,22.8867)"
           id="g134"><path
             id="path136"
             style="fill:#f39200;fill-opacity:1;fill-rule:nonzero;stroke:none"
             d="m 0,0 c 0,-1.001 0.521,-1.502 1.563,-1.502 1.042,0 1.564,0.501 1.564,1.502 0,1.002 -0.522,1.503 -1.564,1.503 C 0.521,1.503 0,1.002 0,0 m -0.164,-8.369 c 0,-0.586 0.719,-0.879 2.157,-0.879 1.437,0 2.156,0.341 2.156,1.022 0,0.368 -0.123,0.603 -0.368,0.705 -0.246,0.103 -0.763,0.16 -1.553,0.174 l -1.84,0.142 C 0.021,-7.571 -0.164,-7.96 -0.164,-8.369 m 7.072,0.297 c 0,-1.166 -0.449,-2.028 -1.348,-2.586 -0.901,-0.559 -2.117,-0.838 -3.65,-0.838 -1.532,0 -2.712,0.204 -3.535,0.613 -0.824,0.408 -1.237,1.151 -1.237,2.228 0,0.859 0.491,1.669 1.472,2.432 -0.505,0.34 -0.756,0.858 -0.756,1.554 0,0.272 0.205,0.721 0.613,1.349 l 0.184,0.286 c -0.927,0.667 -1.39,1.651 -1.39,2.952 0,1.302 0.391,2.245 1.176,2.831 0.783,0.585 1.821,0.879 3.117,0.879 0.585,0 1.164,-0.067 1.736,-0.204 L 3.617,3.363 6.908,3.465 V 1.278 L 5.375,1.4 C 5.675,0.937 5.824,0.474 5.824,0.011 5.824,-1.352 5.477,-2.292 4.782,-2.81 4.088,-3.328 2.997,-3.586 1.512,-3.586 1.198,-3.586 0.919,-3.56 0.675,-3.505 0.538,-3.859 0.47,-4.148 0.47,-4.373 c 0,-0.225 0.116,-0.378 0.347,-0.46 0.232,-0.082 0.777,-0.129 1.635,-0.144 1.717,-0.013 2.889,-0.242 3.516,-0.684 0.627,-0.443 0.94,-1.247 0.94,-2.411" /></g><g
           transform="translate(264.0906,22.1206)"
           id="g138"><path
             id="path140"
             style="fill:#f39200;fill-opacity:1;fill-rule:nonzero;stroke:none"
             d="M 0,0 C 0,0.817 -0.13,1.386 -0.389,1.707 -0.647,2.027 -1.101,2.188 -1.748,2.188 -2.395,2.188 -2.852,2.02 -3.116,1.687 -3.383,1.352 -3.522,0.791 -3.536,0 Z m -3.015,-3.443 c 0.32,-0.28 0.781,-0.42 1.38,-0.42 1.268,0 2.398,0.041 3.393,0.123 l 0.572,0.062 0.041,-2.025 c -1.567,-0.38 -2.984,-0.571 -4.252,-0.571 -1.539,0 -2.656,0.408 -3.351,1.226 -0.695,0.817 -1.042,2.146 -1.042,3.986 0,3.665 1.505,5.498 4.516,5.498 2.971,0 4.456,-1.541 4.456,-4.62 l -0.205,-1.9 h -6.009 c 0.014,-0.627 0.181,-1.08 0.501,-1.359" /></g><g
           transform="translate(276.4763,23.9805)"
           id="g142"><path
             id="path144"
             style="fill:#f39200;fill-opacity:1;fill-rule:nonzero;stroke:none"
             d="M 0,0 V -7.889 H -2.739 V 0 h -1.104 v 2.331 h 1.104 V 2.78 c 0,1.471 0.218,2.486 0.653,3.046 0.437,0.558 1.213,0.837 2.33,0.837 0.49,0 1.124,-0.068 1.901,-0.205 L 2.574,6.397 2.534,4.169 C 1.935,4.197 1.43,4.21 1.021,4.21 0.612,4.21 0.34,4.102 0.203,3.883 0.067,3.666 0,3.291 0,2.759 V 2.331 H 2.473 V 0 Z" /></g><g
           transform="translate(283.1277,18.9121)"
           id="g146"><path
             id="path148"
             style="fill:#f39200;fill-opacity:1;fill-rule:nonzero;stroke:none"
             d="m 0,0 c 0.279,-0.491 0.78,-0.736 1.503,-0.736 0.722,0 1.223,0.245 1.502,0.736 0.279,0.491 0.419,1.26 0.419,2.309 0,1.05 -0.14,1.813 -0.419,2.29 C 2.726,5.075 2.225,5.314 1.503,5.314 0.78,5.314 0.279,5.075 0,4.599 -0.278,4.122 -0.419,3.359 -0.419,2.309 -0.419,1.26 -0.278,0.491 0,0 m -2.115,6.244 c 0.722,0.933 1.928,1.4 3.618,1.4 1.689,0 2.894,-0.467 3.617,-1.4 0.722,-0.933 1.083,-2.245 1.083,-3.935 0,-3.583 -1.566,-5.374 -4.7,-5.374 -3.135,0 -4.701,1.791 -4.701,5.374 0,1.69 0.361,3.002 1.083,3.935" /></g><g
           transform="translate(291.3338,16.0913)"
           id="g150"><path
             id="path152"
             style="fill:#f39200;fill-opacity:1;fill-rule:nonzero;stroke:none"
             d="M 0,0 V 10.22 H 2.719 V 9.136 c 1.144,0.681 2.233,1.124 3.27,1.329 V 7.706 C 4.885,7.474 3.938,7.235 3.147,6.99 L 2.739,6.847 V 0 Z" /></g><g
           transform="translate(311.6697,16.0913)"
           id="g154"><path
             id="path156"
             style="fill:#1e3767;fill-opacity:1;fill-rule:nonzero;stroke:none"
             d="M 0,0 V 5.764 H -5.172 V 0 h -2.82 v 13.898 h 2.82 V 8.217 H 0 v 5.681 H 2.82 L 2.82,0 Z" /></g><g
           transform="translate(323.2986,26.311)"
           id="g158"><path
             id="path160"
             style="fill:#f39200;fill-opacity:1;fill-rule:nonzero;stroke:none"
             d="M 0,0 H 2.738 V -10.22 H 0.02 v 0.573 c -0.981,-0.545 -1.832,-0.817 -2.554,-0.817 -1.418,0 -2.371,0.391 -2.862,1.175 -0.491,0.783 -0.735,2.095 -0.735,3.933 V 0 h 2.738 v -5.396 c 0,-1.009 0.082,-1.697 0.246,-2.064 0.163,-0.369 0.558,-0.552 1.185,-0.552 0.599,0 1.164,0.095 1.696,0.286 L 0,-7.644 Z" /></g><g
           transform="translate(331.3103,16.0913)"
           id="g162"><path
             id="path164"
             style="fill:#f39200;fill-opacity:1;fill-rule:nonzero;stroke:none"
             d="m 0,0 h -2.739 v 10.22 h 2.718 V 9.647 c 0.94,0.544 1.745,0.818 2.413,0.818 1.103,0 1.955,-0.321 2.554,-0.961 1.253,0.64 2.398,0.961 3.434,0.961 1.349,0 2.285,-0.392 2.81,-1.175 0.525,-0.784 0.787,-2.034 0.787,-3.75 V 0 H 9.238 V 5.457 C 9.238,6.329 9.144,6.973 8.951,7.388 8.761,7.805 8.38,8.012 7.808,8.012 7.371,8.012 6.84,7.917 6.214,7.726 L 5.906,7.624 C 5.961,6.602 5.989,5.825 5.989,5.293 V 0 H 3.25 V 5.253 C 3.25,6.261 3.161,6.973 2.983,7.388 2.807,7.805 2.418,8.012 1.818,8.012 1.287,8.012 0.763,7.917 0.245,7.726 L 0,7.644 Z" /></g><g
           transform="translate(348.949,20.4238)"
           id="g166"><path
             id="path168"
             style="fill:#f39200;fill-opacity:1;fill-rule:nonzero;stroke:none"
             d="m 0,0 c -0.764,-0.067 -1.145,-0.477 -1.145,-1.226 0,-0.75 0.333,-1.124 1.002,-1.124 0.517,0 1.082,0.082 1.696,0.246 L 1.86,-2.023 V 0.165 Z M 4.598,2.699 V -1.553 C 4.625,-1.88 4.681,-2.107 4.763,-2.238 4.844,-2.367 5.015,-2.459 5.273,-2.514 L 5.19,-4.577 c -0.694,0 -1.25,0.047 -1.665,0.143 -0.415,0.095 -0.835,0.285 -1.256,0.571 -0.981,-0.476 -1.984,-0.714 -3.004,-0.714 -2.114,0 -3.169,1.117 -3.169,3.351 0,1.09 0.293,1.863 0.88,2.32 0.585,0.457 1.484,0.726 2.697,0.807 L 1.86,2.065 V 2.699 C 1.86,3.12 1.765,3.411 1.574,3.567 1.383,3.724 1.076,3.803 0.653,3.803 L -3.188,3.638 -3.27,5.54 C -1.812,5.935 -0.426,6.132 0.889,6.132 2.204,6.132 3.15,5.859 3.73,5.315 4.309,4.77 4.598,3.897 4.598,2.699" /></g><g
           transform="translate(358.9021,16.0913)"
           id="g170"><path
             id="path172"
             style="fill:#f39200;fill-opacity:1;fill-rule:nonzero;stroke:none"
             d="m 0,0 h -2.739 v 10.22 h 2.718 V 9.647 c 0.927,0.544 1.779,0.818 2.555,0.818 1.362,0 2.303,-0.402 2.82,-1.206 C 5.873,8.455 6.131,7.215 6.131,5.54 V 0 H 3.393 V 5.457 C 3.393,6.329 3.29,6.973 3.085,7.388 2.882,7.805 2.473,8.012 1.859,8.012 1.301,8.012 0.763,7.917 0.245,7.726 L 0,7.644 Z" /></g><path
           id="path174"
           style="fill:#f39200;fill-opacity:1;fill-rule:nonzero;stroke:none"
           d="m 367.466,26.311 h 2.738 v -10.22 h -2.738 z m 0,4.088 h 2.738 v -2.78 h -2.738 z" /><g
           transform="translate(378.4002,23.9805)"
           id="g176"><path
             id="path178"
             style="fill:#f39200;fill-opacity:1;fill-rule:nonzero;stroke:none"
             d="m 0,0 h -2.515 v -4.189 c 0,-0.41 0.011,-0.699 0.032,-0.87 0.02,-0.17 0.094,-0.316 0.224,-0.439 0.129,-0.122 0.33,-0.184 0.604,-0.184 l 1.552,0.041 0.124,-2.187 c -0.914,-0.204 -1.609,-0.306 -2.085,-0.306 -1.227,0 -2.064,0.275 -2.514,0.828 -0.449,0.551 -0.674,1.57 -0.674,3.055 V 0 h -1.207 v 2.331 h 1.207 v 2.84 h 2.737 v -2.84 l 2.515,0 z" /></g><g
           transform="translate(379.2371,26.311)"
           id="g180"><path
             id="path182"
             style="fill:#f39200;fill-opacity:1;fill-rule:nonzero;stroke:none"
             d="m 0,0 h 2.699 l 1.86,-7.89 H 5.028 L 6.889,0 H 9.586 L 5.989,-14.512 H 3.312 l 1.124,4.292 H 2.515 Z" /></g></g></g></g></svg>
